<svg xmlns="http://www.w3.org/2000/svg" xmlns:xlink="http://www.w3.org/1999/xlink" viewBox="0 0 750 500"><defs><style>.cls-1,.cls-31{fill:#fff;}.cls-2{font-size:34.43px;font-family:Roboto-Black, Roboto Black;font-weight:800;}.cls-19,.cls-2{fill:#ff5e69;}.cls-3{letter-spacing:0em;}.cls-4{font-size:18.25px;font-family:Raleway-Medium, Raleway;letter-spacing:0.15em;}.cls-16,.cls-4{fill:#277fd9;}.cls-31,.cls-4{font-weight:500;}.cls-5{letter-spacing:0.17em;}.cls-6{letter-spacing:0.2em;}.cls-7{letter-spacing:0.18em;}.cls-8{letter-spacing:0.17em;}.cls-9{letter-spacing:0.2em;}.cls-10{letter-spacing:0.19em;}.cls-11{letter-spacing:0.2em;}.cls-12{fill:#dca86e;}.cls-13{fill:url(#linear-gradient);}.cls-14{fill:#2167be;}.cls-15{fill:url(#linear-gradient-2);}.cls-17{fill:#fec4ad;}.cls-18{fill:url(#linear-gradient-3);}.cls-20{fill:url(#linear-gradient-4);}.cls-21{fill:#f8d2a1;}.cls-22,.cls-25{fill:none;stroke-miterlimit:10;}.cls-22{stroke:#d4dbe2;stroke-width:0.25px;}.cls-23{fill:#ffba01;}.cls-24{fill:#d2dceb;}.cls-25{stroke:#a6aeba;stroke-width:0.5px;}.cls-26{fill:#50cc85;}.cls-27{fill:#77e6a6;}.cls-28{fill:#f3ba7a;}.cls-29{fill:#a6aeba;}.cls-30{fill:#b6bfcc;}.cls-31{font-size:12.28px;font-family:Roboto-Medium, Roboto;}.cls-32{letter-spacing:-0.01em;}</style><linearGradient id="linear-gradient" x1="436.26" y1="347.88" x2="465.15" y2="347.88" gradientTransform="matrix(0.81, 0.59, -0.59, 0.81, 256.08, -190.81)" gradientUnits="userSpaceOnUse"><stop offset="0" stop-color="#343a44"/><stop offset="0.3" stop-color="#232d3e"/><stop offset="0.64" stop-color="#182439"/><stop offset="1" stop-color="#142138"/></linearGradient><linearGradient id="linear-gradient-2" x1="441.14" y1="359.3" x2="470.03" y2="359.3" gradientTransform="matrix(1, 0, 0, 1, 0, 0)" xlink:href="#linear-gradient"/><linearGradient id="linear-gradient-3" x1="428.55" y1="166.04" x2="459.87" y2="166.04" gradientTransform="matrix(-0.66, -0.75, -0.75, 0.66, 1011.11, 441.86)" xlink:href="#linear-gradient"/><linearGradient id="linear-gradient-4" x1="494.91" y1="269.18" x2="590.69" y2="269.18" gradientTransform="matrix(1, 0, 0, 1, 0, 0)" xlink:href="#linear-gradient"/></defs><g id="BACKGROUND"><rect class="cls-1" width="750" height="500"/></g><g id="OBJECTS"><text class="cls-2" transform="translate(296.69 104.92)">ER<tspan class="cls-3" x="35.46" y="0">R</tspan><tspan x="54.09" y="0">OR 404</tspan></text><text class="cls-4" transform="translate(270.21 129.79)">P<tspan class="cls-5" x="14.08" y="0">A</tspan><tspan class="cls-6" x="29.61" y="0">GE N</tspan><tspan class="cls-7" x="86.94" y="0">O</tspan><tspan class="cls-8" x="103.83" y="0">T</tspan><tspan class="cls-9" x="118.14" y="0"> </tspan><tspan class="cls-10" x="126.4" y="0">F</tspan><tspan class="cls-11" x="140.45" y="0">OUND</tspan></text><polygon class="cls-12" points="548.35 301.32 581.21 372.35 584.91 372.34 556.5 296.71 548.35 301.32"/><polygon class="cls-12" points="514.36 302.84 481.5 372.35 477.79 372.34 506.21 301.26 514.36 302.84"/><path class="cls-13" d="M430.86,357.13l-16.7,14.61-19.69-13.86s6.7-2.24,18.19.82l11.76-9.88Z"/><path class="cls-14" d="M527.55,276.51s-36.92,18.92-50,24.58-57.41,50.09-57.41,50.09,5.68,11.57,8.52,9.54c25.05-17.91,48.13-33.94,63-39.53,29.37-11.08,37.56-13.48,45.08-22.2C536.74,299,532.33,288.51,527.55,276.51Z"/><path class="cls-15" d="M470,349.67l-4.81,21.66-24.08.48s4.08-5.77,15.15-10.11l3.63-14.92Z"/><path class="cls-16" d="M528.44,271.7s-34.34,3.71-46.85,10.45S459.1,350.7,459.1,350.7s9.73,5.28,10.93,2a450.55,450.55,0,0,1,20.48-47.15c12.34-2.25,40.92,11.66,61.57-8.69C552.08,296.86,534.22,283.26,528.44,271.7Z"/><path class="cls-17" d="M587.61,230a45.77,45.77,0,0,0-4,9.25l-14.12-1.3s7.29-11,6.73-17.75Z"/><path class="cls-17" d="M584.58,207.14c-.81-.22-3.82-1-4.44-.8-.84.35.14,1.46-.45,2.14-1,1.09-2.9,1.12-4.15,1.78a8.18,8.18,0,0,0-3.34,3.09c-1.15,2,3,6.53,3.69,9.91,1.37,7.07,10.31,8.12,17.57,6a12.56,12.56,0,0,0,6.4-5.37c1.67-2.66.73-7.11-.66-9.76a12.52,12.52,0,0,0-3.94-4c-1.31-.9-1.67-4.66-3.25-4.92C592,205.2,586.38,207.62,584.58,207.14Z"/><path class="cls-18" d="M604.85,226.12s-.24-1.18,1.81-3.11c6.78-6.38-.47-18.86-7.86-21-3.77-1.11-6.19.06-7.54-3.69.09.27-1.53,1-1.69,1.09a2.93,2.93,0,0,0-1.34,2.52c-.12,5.46,4.76,10.53,8.45,14,1.66,1.54-2.42.48-4.07.79-1.07.21-3.86,3.15-4.45,3.59,1.54,1.93,2.92.19,5,1.12,1.93.86.71,3.32-1.09,3.61a3.77,3.77,0,0,1-3.92-1.39c-1.28.69-1.48,4.83-2.48,5.91,1.38.76,9.45,2.18,11.35,2.16A8.08,8.08,0,0,0,604.85,226.12Z"/><path class="cls-19" d="M587.15,232.16c3,33-35.07,64.7-35.07,64.7s-24.83.94-23.64-25.16c0,0,1.94-4.74,17.31-18.67,10.27-9.31,17.49-23.21,24.71-22.93C590.2,230.86,587.15,232.16,587.15,232.16Z"/><path class="cls-20" d="M494.91,298.68s22.9,8.55,53.43-3S587.19,230,587.19,230l3.5,1.77s-3.4,59.67-43.59,72.63c-30.73,9.91-52.19-1.89-52.19-1.89Z"/><path class="cls-21" d="M583.48,265.16s3.66,12.67,3.86,19-2.5,27.76-2.5,27.76l5.82.74s5.17-25.57,5.29-33.91-4.69-21.85-4.69-21.85Z"/><path class="cls-19" d="M583.12,265.69c4.22,18.46,2.47,43.19,2.47,43.19l6.31.4c6.92-14.47,6.28-46.55,2.62-60-2.15-7.93-3.42-15.92-8.79-17.15-3.35-.78-10.25,1.68-11.17,5C572.55,244.27,581,256.64,583.12,265.69Z"/><path class="cls-21" d="M582.24,315.1c-1.39,2.65-2,4.6-1.2,5.27.56.46,1.48-2.12,2.58-3a8.06,8.06,0,0,1-.32,4.77c-.78,1.91-.71,3.55.74,3.69s3.82,0,4.34-1.16,1.72-6.23,2.37-7.9-.21-3.6,0-4.55-4.29-2.56-4.29-2.56c-.25.38-1.65,2.29-1.65,2.29a14.46,14.46,0,0,1-1.58,1.67A5.42,5.42,0,0,0,582.24,315.1Z"/><line class="cls-22" x1="547.78" y1="55.71" x2="547.78" y2="99.71"/><path class="cls-23" d="M555.57,116.63a7.71,7.71,0,1,1-7.1-8.29A7.7,7.7,0,0,1,555.57,116.63Z"/><polygon class="cls-24" points="584.22 119.31 511.35 119.31 543.24 96.11 552.33 96.11 584.22 119.31"/><line class="cls-22" x1="204.72" y1="55.71" x2="204.72" y2="99.71"/><path class="cls-23" d="M212.51,116.63a7.72,7.72,0,1,1-7.1-8.29A7.72,7.72,0,0,1,212.51,116.63Z"/><polygon class="cls-24" points="241.15 119.31 168.28 119.31 200.17 96.11 209.26 96.11 241.15 119.31"/><line class="cls-25" x1="125.84" y1="372" x2="624.16" y2="372"/><path class="cls-26" d="M307,218.91a30.79,30.79,0,0,1,4.33-7.11c2.79-3.36,7-8.94,7-8.94s-2,4-4.79,8.46A34.43,34.43,0,0,1,307,218.91Z"/><path class="cls-26" d="M309.88,212.37a17.76,17.76,0,0,0,4.94-7.57c1.86-5.15,3.55-9.06,3.55-9.06a72.68,72.68,0,0,0-5.73,9.71C310.91,209.43,309.88,212.37,309.88,212.37Z"/><path class="cls-26" d="M307.2,218.18a65.3,65.3,0,0,0,1.93-10.57c.32-4.7.28-7.65.28-7.65s-2,8.52-2.65,12.14A11.61,11.61,0,0,0,307.2,218.18Z"/><path class="cls-26" d="M305.81,222.09a34.22,34.22,0,0,0-1.18-11.48,35.8,35.8,0,0,1-1.8-8.86,36.57,36.57,0,0,0,.15,10.57A69.74,69.74,0,0,0,305.81,222.09Z"/><path class="cls-26" d="M306.31,220.75s4.31-3.67,6.48-4.54a25.44,25.44,0,0,0,5.2-3.38s-3.73,4.78-5.82,5.73S306.31,220.75,306.31,220.75Z"/><path class="cls-26" d="M304.83,225.89a17.43,17.43,0,0,0-1.51-8,42.58,42.58,0,0,1-2.37-7s-.11,6.37,1.16,8.75S304.83,225.89,304.83,225.89Z"/><path class="cls-26" d="M305.23,223.48a13.82,13.82,0,0,1,4.86-2,12,12,0,0,0,3-.66,5.66,5.66,0,0,1-4.15,2.57C306,223.79,305.23,223.48,305.23,223.48Z"/><path class="cls-26" d="M303.61,229.05c.54-2.08,1.22-5.3,1.93-7.44a66,66,0,0,1,5.29-10.86c-2.27,5.05-3.93,7.89-5.08,12.24-.45,1.72-1.23,4.11-1.66,5.68C304,229.09,303.68,229.45,303.61,229.05Z"/><path class="cls-27" d="M304.71,220.61a32.45,32.45,0,0,0-1.89-8.65c-1.65-4.34-3.9-11.39-3.9-11.39s.66,4.69,1.88,10.16A36.53,36.53,0,0,0,304.71,220.61Z"/><path class="cls-27" d="M304.07,213a18.84,18.84,0,0,1-2.35-9.32c-.09-5.81-.44-10.33-.44-10.33a77.21,77.21,0,0,1,2.41,11.74C304,209.72,304.07,213,304.07,213Z"/><path class="cls-27" d="M304.75,219.8a68.61,68.61,0,0,1,1.72-11.3c1.3-4.83,2.36-7.78,2.36-7.78s-.9,9.27-1.53,13.12A12.47,12.47,0,0,1,304.75,219.8Z"/><path class="cls-27" d="M304.79,224.21A36.4,36.4,0,0,1,310,213.08a38.39,38.39,0,0,0,4.86-8.28,39,39,0,0,1-3.8,10.56A74.74,74.74,0,0,1,304.79,224.21Z"/><path class="cls-27" d="M304.75,222.69s-3.05-5.18-4.94-6.8a27.56,27.56,0,0,1-4.06-5.21s2.1,6.11,3.87,7.78S304.75,222.69,304.75,222.69Z"/><path class="cls-27" d="M304.47,228.37a18.34,18.34,0,0,1,4.28-7.51,44.78,44.78,0,0,0,4.8-6.23s-2.09,6.44-4.19,8.4S304.47,228.37,304.47,228.37Z"/><path class="cls-27" d="M304.9,225.81a14.85,14.85,0,0,0-4.2-3.67,12.89,12.89,0,0,1-2.81-1.71,6,6,0,0,0,3.28,4C304,225.84,304.9,225.81,304.9,225.81Z"/><path class="cls-26" d="M304.6,232c.18-2.28.6-5.75.63-8.16a69.69,69.69,0,0,0-1.56-12.73c.54,5.85,1.23,9.28.87,14-.14,1.89-.18,4.56-.3,6.28C304.17,231.87,304.39,232.35,304.6,232Z"/><path class="cls-26" d="M301.44,221.5a30.79,30.79,0,0,0-4.33-7.11c-2.8-3.36-7-8.94-7-8.94s2,4,4.79,8.46A34.43,34.43,0,0,0,301.44,221.5Z"/><path class="cls-26" d="M298.55,215a17.83,17.83,0,0,1-4.95-7.57c-1.86-5.15-3.55-9.06-3.55-9.06a73.46,73.46,0,0,1,5.74,9.71C297.51,212,298.55,215,298.55,215Z"/><path class="cls-26" d="M301.23,220.77a64.81,64.81,0,0,1-1.94-10.57c-.31-4.7-.28-7.65-.28-7.65s2,8.52,2.66,12.14A11.74,11.74,0,0,1,301.23,220.77Z"/><path class="cls-26" d="M302.61,224.68a34.36,34.36,0,0,1,1.19-11.48,36.4,36.4,0,0,0,1.8-8.86,36.76,36.76,0,0,1-.16,10.57A69.74,69.74,0,0,1,302.61,224.68Z"/><path class="cls-26" d="M302.11,223.34s-4.3-3.67-6.48-4.54a25.75,25.75,0,0,1-5.2-3.38s3.74,4.78,5.83,5.73S302.11,223.34,302.11,223.34Z"/><path class="cls-26" d="M303.6,228.48a17.32,17.32,0,0,1,1.5-8,41.33,41.33,0,0,0,2.37-7s.12,6.37-1.15,8.75S303.6,228.48,303.6,228.48Z"/><path class="cls-26" d="M303.2,226.07a13.92,13.92,0,0,0-4.86-2,11.85,11.85,0,0,1-3-.66,5.63,5.63,0,0,0,4.14,2.57C302.41,226.38,303.2,226.07,303.2,226.07Z"/><path class="cls-26" d="M304.81,231.64c-.53-2.08-1.22-5.3-1.93-7.44a65.14,65.14,0,0,0-5.29-10.86c2.28,5,3.94,7.88,5.08,12.24.46,1.72,1.24,4.11,1.66,5.68C304.4,231.68,304.74,232,304.81,231.64Z"/><polygon class="cls-24" points="310.28 246.16 298.61 246.16 295.01 225.61 314.3 225.61 310.28 246.16"/><polygon class="cls-12" points="443.57 251.81 462.81 372.12 466.52 372.1 451.29 251.78 443.57 251.81"/><polygon class="cls-12" points="310.93 251.86 285.87 372.29 280.88 372.3 300.53 251.89 310.93 251.86"/><rect class="cls-12" x="271.49" y="244.78" width="207.03" height="9.27"/><rect class="cls-28" x="261.56" y="244.78" width="226.88" height="6.15"/><polygon class="cls-29" points="424.99 241.53 416.94 241.53 408.89 190.16 415.01 190.16 424.99 241.53"/><polygon class="cls-24" points="422.68 241.53 391.25 241.53 383.2 190.16 414.63 190.16 422.68 241.53"/><rect class="cls-24" x="390.83" y="240.37" width="34.16" height="3.83"/><rect class="cls-29" x="424.99" y="240.37" width="43.07" height="3.83"/><path class="cls-29" d="M405.42,218.34c.91,3.94.27,8.18-1.43,9.49s-3.81-.82-4.72-4.75-.27-8.18,1.43-9.49S404.51,214.41,405.42,218.34Z"/><path class="cls-29" d="M356.53,244h-4.45a3.72,3.72,0,0,1-3.69-3.16l-1.79-11.47H362l-1.78,11.47A3.74,3.74,0,0,1,356.53,244Z"/><path class="cls-29" d="M360.66,241.58l-.49,0-.21,0-.16-.13c-.11-.08-2.71-2.12-2.71-5s2-5.41,4.41-5.41a4.61,4.61,0,0,1,3.59,1.52,4.67,4.67,0,0,1,.82,4h0C365.33,239.75,363.42,241.58,360.66,241.58Zm-.16-1.41c2.81.09,3.7-2.06,4-3.91h0a3.37,3.37,0,0,0-.52-2.87,3.2,3.2,0,0,0-2.51-1c-1.66,0-3,1.8-3,4A5.59,5.59,0,0,0,360.5,240.17Z"/></g></svg>
